<svg width="30" height="40" viewBox="0 0 30 40" fill="none" xmlns="http://www.w3.org/2000/svg">
<path d="M29.3581 5.69664L28.4265 3.56914C27.943 2.46516 26.8508 1.7518 25.644 1.7518H16.107C14.9541 1.7518 13.8827 2.42023 13.3775 3.45477L12.3334 5.59242C12.0232 6.2275 11.3651 6.63789 10.6568 6.63789H10.2173C10.342 6.25539 10.3352 5.87398 10.1971 5.49375C11.0224 5.28555 11.6352 4.53711 11.6352 3.64812V1.90344C11.6352 0.853906 10.7812 0 9.73164 0H2.52188C1.47234 0 0.618438 0.853906 0.618438 1.90344V3.64805C0.618438 4.60031 1.32133 5.39141 2.23555 5.52992C2.09836 5.93422 2.1082 6.33672 2.265 6.73742C0.963125 7.07922 0 8.26406 0 9.66961V16.1241C0 16.8817 1.17188 16.8817 1.17188 16.1241V14.1464H5.52711V31.9034H1.17188V19.2395C1.17188 18.482 0 18.482 0 19.2395V36.9683C0 38.64 1.36234 40 3.03688 40H26.9362C28.6109 40 29.9731 38.64 29.9731 36.9683V8.63391C29.9731 7.61688 29.7663 6.62867 29.3581 5.69664ZM3.31148 6.09469C3.31148 5.79516 3.55516 5.55148 3.85461 5.55148H8.59094C9.29313 5.55148 9.29313 6.63789 8.59094 6.63789H3.85461C3.55516 6.63789 3.31148 6.39422 3.31148 6.09469ZM1.79031 3.64805V1.90344C1.79031 1.5 2.11852 1.17188 2.52188 1.17188H9.73164C10.135 1.17188 10.4632 1.50008 10.4632 1.90344V3.64805C10.4632 4.05141 10.135 4.37961 9.73164 4.37961H2.52188C2.11852 4.37961 1.79031 4.05141 1.79031 3.64805ZM1.17188 9.66961C1.17188 8.64414 2.00852 7.80977 3.03688 7.80977H10.6568C11.8097 7.80977 12.8811 7.14133 13.3864 6.1068L14.4304 3.96922C14.7405 3.33414 15.3987 2.92383 16.107 2.92383H25.6439C26.3853 2.92383 27.0562 3.36172 27.353 4.03937L28.2846 6.1668C28.6274 6.94969 28.8012 7.77977 28.8012 8.63398V12.9745H1.17188V9.66961ZM6.69899 14.1463H23.2741V24.143C23.2741 24.4666 23.5364 24.7289 23.8601 24.7289C24.1838 24.7289 24.446 24.4666 24.446 24.143V14.1463H28.8013V31.9033H24.446V27.2645C24.446 26.9409 24.1838 26.6785 23.8601 26.6785C23.5364 26.6785 23.2741 26.9409 23.2741 27.2645V31.9033H6.69899V14.1463ZM26.9362 38.8281H3.03688C2.00852 38.8281 1.17188 37.9938 1.17188 36.9683V33.0752H28.8013V36.9683C28.8013 37.9938 27.9646 38.8281 26.9362 38.8281Z" fill="#004928"/>
<path d="M17.8626 9.32891H23.8775C27.0615 9.32891 27.0666 4.37961 23.8775 4.37961H17.8626C14.6786 4.37961 14.6734 9.32891 17.8626 9.32891ZM17.8626 5.55148H23.8775C25.5073 5.55148 25.5819 8.15703 23.8775 8.15703H17.8626C16.2329 8.15703 16.1583 5.55148 17.8626 5.55148Z" fill="#004928"/>
<path d="M19.8099 23.6219C18.3269 23.5047 16.5754 23.9569 15.5727 25.1023V24.0581C16.0912 23.543 17.2801 22.1814 17.2948 20.5141C17.3131 18.4269 15.4822 16.7848 15.4042 16.716C15.1856 16.5228 14.8581 16.5199 14.6361 16.7092C14.5569 16.7767 12.6973 18.3863 12.6788 20.4735C12.6635 22.2136 13.9328 23.6434 14.4009 24.111V25.1023C13.3959 23.9544 11.6481 23.5067 10.1638 23.622C9.87243 23.6448 9.64235 23.8789 9.62462 24.1705C9.61829 24.2743 9.48712 26.7277 10.9789 28.1904C12.8328 30.0083 17.1409 30.0083 18.9949 28.1904C20.4867 26.7277 20.3555 24.2743 20.3491 24.1705C20.3313 23.8787 20.1013 23.6448 19.8099 23.6219ZM15.0088 17.9914C15.455 18.5057 16.1321 19.4595 16.1229 20.5037C16.1138 21.5424 15.4273 22.4796 14.9723 22.9876C14.9683 22.9877 14.9643 22.988 14.9604 22.9882C14.5145 22.4701 13.8416 21.5159 13.8507 20.4838C13.8599 19.4394 14.554 18.4975 15.0088 17.9914ZM11.7993 27.3536C11.0541 26.6228 10.8563 25.4732 10.807 24.7948C11.4895 24.8336 12.6517 25.0121 13.3928 25.7387C14.1388 26.4701 14.3362 27.6211 14.3852 28.2993C13.7041 28.2623 12.546 28.0858 11.7993 27.3536ZM18.1743 27.3536C17.4281 28.0852 16.2712 28.2621 15.5902 28.2992C15.6413 27.6191 15.8406 26.4644 16.5809 25.7387C17.3277 25.0063 18.4862 24.8298 19.1669 24.7929C19.1176 25.4716 18.9201 26.6223 18.1743 27.3536Z" fill="#004928"/>
<path d="M26.1585 35.6648H3.81477C3.05719 35.6648 3.05719 36.8367 3.81477 36.8367H26.1585C26.9161 36.8367 26.9161 35.6648 26.1585 35.6648Z" fill="#004928"/>
</svg>
