<svg width="35" height="31" viewBox="0 0 35 31" fill="none" xmlns="http://www.w3.org/2000/svg">
<path d="M32.0614 13.8165C30.4345 12.153 28.1863 11.3768 25.947 11.6411V9.86176C25.947 4.60044 21.7488 0.288587 16.5886 0.250262C14.8059 0.236983 13.0639 0.728008 11.5552 1.67018C10.089 2.58577 8.89983 3.88631 8.11586 5.43158C7.79995 6.05423 7.47032 6.66436 7.13578 7.24504C6.99684 7.48664 7.0786 7.79575 7.31819 7.93597C7.55778 8.07593 7.86489 7.99357 8.00383 7.75223C8.34717 7.15591 8.68559 6.52988 9.00927 5.89159C9.46387 4.99555 10.0582 4.20663 10.7575 3.54567C11.0807 3.53942 11.9283 3.55662 12.7573 3.85582C13.0284 3.95382 13.3332 3.79379 13.4101 3.5144C13.4794 3.26289 13.3394 2.99209 13.0957 2.90426C12.6967 2.76013 12.2973 2.671 11.9368 2.61627C13.2903 1.73404 14.8934 1.24822 16.5811 1.26126C21.192 1.2954 24.9436 5.15349 24.9436 9.86176V11.8303C24.7985 11.8681 24.6538 11.9095 24.5097 11.9564C23.3444 12.3362 22.2233 12.6276 21.1289 12.8353C20.8699 12.3615 20.273 11.5353 19.1123 11.1274C18.8505 11.0351 18.5646 11.1745 18.4732 11.438C18.3819 11.7015 18.5201 11.9898 18.7816 12.0818C19.4163 12.3046 19.8168 12.6945 20.0541 13.0135C19.4512 13.099 18.8549 13.1587 18.2624 13.1926C15.7966 13.3339 13.5079 14.3686 11.7612 16.127C8.93476 18.9741 8.93476 23.6068 11.7625 26.455C12.5379 27.2231 13.3914 27.902 14.3288 28.4592C12.7355 28.9886 11.1513 29.1452 9.48922 29.239C4.91378 29.239 1.1386 25.3168 1.25632 20.7154C1.30626 17.7995 2.31221 15.214 4.24625 13.031C5.12051 12.044 5.95829 10.9548 6.7363 9.79373C6.89128 9.5623 6.83073 9.24824 6.60124 9.09212C6.37148 8.93574 6.05971 8.99673 5.90473 9.22817C5.15181 10.352 4.34198 11.4049 3.49773 12.3581C1.39914 14.7269 0.307547 17.5329 0.252954 20.6938C0.122035 25.8534 4.36061 30.25 9.48922 30.25C11.5547 30.25 13.6171 29.857 15.5376 29.0915C17.2207 29.8601 19.0657 30.2495 20.9131 30.2364C24.3061 30.2143 27.4963 28.871 29.8958 26.4539C30.0916 26.2566 30.0916 25.9366 29.8958 25.739C29.6999 25.542 29.3822 25.542 29.1863 25.739C27.2458 27.694 24.7765 28.8228 22.2246 29.1241C22.4875 28.4837 22.6994 27.5309 22.3713 26.4201C22.2924 26.1526 22.0132 26.0002 21.7472 26.0799C21.4818 26.1594 21.3304 26.4409 21.4096 26.7083C21.762 27.902 21.2831 28.8522 21.0624 29.2036C17.8528 29.2666 14.756 28.0026 12.4709 25.739C10.1053 23.3564 10.0383 19.5222 12.2683 17.0564C12.6127 17.1854 13.1951 17.5011 13.2279 18.1662C13.2416 18.4406 13.481 18.6603 13.7542 18.6457C14.0271 18.6319 14.2437 18.3909 14.2303 18.1156C14.1852 17.2118 13.6183 16.6355 13.0453 16.3087C14.5423 15.0248 16.3136 14.3167 18.3193 14.202C20.3796 14.0842 22.5664 13.6521 24.8187 12.9179C25.0295 12.8494 25.2419 12.7923 25.4551 12.7459C25.8469 12.945 26.932 13.5968 27.0787 14.7676C27.1131 15.041 27.368 15.2401 27.6394 15.2057C27.9105 15.171 28.1085 14.9143 28.0743 14.6409C27.9612 13.7397 27.4862 13.0709 26.9894 12.6038C28.6055 12.6513 30.1654 13.318 31.3468 14.5257C33.8019 17.0358 33.7589 21.1329 31.2513 23.6589L30.8536 24.0598C30.6575 24.2571 30.6578 24.5771 30.8536 24.7744C31.0495 24.9717 31.3672 24.9717 31.5631 24.7744L31.9607 24.3736C34.857 21.4566 34.902 16.7205 32.0614 13.8165C34.902 16.7205 30.4345 12.153 32.0614 13.8165Z" fill="#004928"/>
<path d="M32.0614 13.8165C30.4345 12.1529 28.1863 11.3768 25.947 11.6411V9.86176C25.947 4.60044 21.7488 0.288587 16.5886 0.250262C14.8059 0.236983 13.0639 0.728008 11.5552 1.67018C10.089 2.58577 8.89983 3.88631 8.11586 5.43158C7.79995 6.05423 7.47032 6.66436 7.13578 7.24504C6.99684 7.48664 7.0786 7.79575 7.31819 7.93597C7.55778 8.07593 7.86489 7.99357 8.00383 7.75223C8.34717 7.15591 8.68559 6.52988 9.00927 5.89159C9.46387 4.99555 10.0582 4.20663 10.7575 3.54567C11.0807 3.53942 11.9283 3.55662 12.7573 3.85582C13.0284 3.95382 13.3332 3.79379 13.4101 3.5144C13.4794 3.26289 13.3394 2.99209 13.0957 2.90426C12.6967 2.76013 12.2973 2.671 11.9368 2.61627C13.2903 1.73404 14.8934 1.24822 16.5811 1.26126C21.192 1.2954 24.9436 5.15349 24.9436 9.86176V11.8303C24.7985 11.8681 24.6538 11.9095 24.5097 11.9564C23.3444 12.3362 22.2233 12.6276 21.1289 12.8353C20.8699 12.3615 20.273 11.5353 19.1123 11.1274C18.8505 11.0351 18.5646 11.1745 18.4732 11.438C18.3819 11.7015 18.5201 11.9898 18.7816 12.0818C19.4163 12.3046 19.8168 12.6945 20.0541 13.0135C19.4512 13.099 18.8549 13.1587 18.2624 13.1926C15.7966 13.3339 13.5079 14.3686 11.7612 16.127C8.93475 18.9741 8.93475 23.6068 11.7625 26.455C12.5379 27.2231 13.3914 27.902 14.3288 28.4592C12.7355 28.9886 11.1513 29.1452 9.48922 29.239C4.91378 29.239 1.1386 25.3168 1.25632 20.7154C1.30626 17.7995 2.31221 15.214 4.24625 13.031C5.12051 12.044 5.95829 10.9548 6.7363 9.79373C6.89128 9.5623 6.83073 9.24824 6.60124 9.09212C6.37148 8.93574 6.05971 8.99673 5.90473 9.22817C5.15181 10.352 4.34198 11.4049 3.49773 12.3581C1.39914 14.7269 0.307547 17.5329 0.252954 20.6938C0.122035 25.8534 4.36061 30.25 9.48922 30.25C11.5547 30.25 13.6171 29.857 15.5376 29.0915C17.2207 29.8601 19.0657 30.2495 20.9131 30.2364C24.3061 30.2143 27.4963 28.871 29.8958 26.4539C30.0916 26.2566 30.0916 25.9366 29.8958 25.739C29.6999 25.542 29.3822 25.542 29.1863 25.739C27.2458 27.694 24.7765 28.8228 22.2246 29.1241C22.4875 28.4837 22.6994 27.5309 22.3713 26.4201C22.2924 26.1526 22.0132 26.0002 21.7472 26.0799C21.4818 26.1594 21.3304 26.4409 21.4096 26.7083C21.762 27.902 21.2831 28.8522 21.0624 29.2036C17.8528 29.2666 14.756 28.0026 12.4709 25.739C10.1053 23.3564 10.0383 19.5222 12.2683 17.0564C12.6127 17.1854 13.1951 17.5011 13.2279 18.1662C13.2416 18.4406 13.481 18.6603 13.7542 18.6457C14.0271 18.6319 14.2437 18.3909 14.2303 18.1156C14.1852 17.2118 13.6183 16.6355 13.0453 16.3087C14.5423 15.0248 16.3136 14.3167 18.3193 14.202C20.3796 14.0842 22.5664 13.6521 24.8187 12.9179C25.0295 12.8494 25.2419 12.7923 25.4551 12.7459C25.8469 12.945 26.932 13.5968 27.0787 14.7676C27.1131 15.041 27.368 15.2401 27.6394 15.2057C27.9105 15.171 28.1085 14.9143 28.0743 14.6409C27.9612 13.7397 27.4862 13.0709 26.9894 12.6038C28.6055 12.6513 30.1654 13.318 31.3468 14.5257C33.8019 17.0358 33.7589 21.1329 31.2513 23.6589L30.8536 24.0598C30.6575 24.2571 30.6578 24.5771 30.8536 24.7744C31.0495 24.9717 31.3672 24.9717 31.5631 24.7744L31.9607 24.3736C34.857 21.4566 34.902 16.7205 32.0614 13.8165ZM32.0614 13.8165C30.4345 12.1529 34.902 16.7205 32.0614 13.8165Z" stroke="#007E4A" stroke-width="0.5"/>
<path d="M11.2181 9.38062C10.9266 9.38062 10.6882 9.63372 10.6846 9.94951C10.681 10.2677 10.917 10.5288 11.2118 10.5327C11.2283 10.5327 12.8797 10.587 13.6271 11.745C13.8066 12.0231 14.181 12.0721 14.4175 11.849C14.6193 11.6583 14.6567 11.3241 14.5034 11.0867C13.4333 9.42874 11.3145 9.3818 11.2247 9.38062C11.2228 9.38062 11.2203 9.38062 11.2181 9.38062Z" fill="#004928"/>
<path d="M20.7039 7.41009C20.9919 7.33526 21.1741 7.01522 21.1043 6.7066C20.6414 4.66047 18.5959 4.19378 18.509 4.17485C18.2157 4.11145 17.9306 4.31399 17.8697 4.62801C17.8091 4.94204 17.9978 5.25006 18.2909 5.31677C18.3503 5.33029 19.7492 5.66235 20.0475 6.98097C20.1078 7.24781 20.416 7.48491 20.7039 7.41009Z" fill="#004928"/>
<path d="M8.05792 16.5224C7.46245 14.3107 4.88295 13.9637 4.77333 13.9499C4.47672 13.9132 4.20562 14.1232 4.16749 14.4206C4.12964 14.7174 4.33991 14.9896 4.63708 15.0286C4.6567 15.0311 6.60374 15.3033 7.008 16.805C7.08706 17.0987 7.4033 17.2728 7.69402 17.1828C7.96961 17.0976 8.13277 16.8008 8.05792 16.5224C8.13586 16.8123 7.46245 14.3107 8.05792 16.5224Z" fill="#004928"/>
<path d="M20.5959 15.2915C20.3158 15.1842 19.9887 15.2927 19.8634 15.5338C19.7384 15.7752 19.8637 16.0586 20.1429 16.1671C20.1601 16.1738 21.8474 16.8442 21.9658 18.0712C21.991 18.3309 22.2642 18.5319 22.5661 18.5092C22.868 18.4874 23.0991 18.252 23.0739 17.9916C22.9002 16.1946 20.69 15.3273 20.5959 15.2915C20.69 15.3273 20.3158 15.1842 20.5959 15.2915Z" fill="#004928"/>
<path d="M27.2109 16.6262C26.9239 16.4702 26.5668 16.577 26.4098 16.8646C26.2529 17.1522 26.3578 17.5143 26.6427 17.6737C26.6528 17.6792 27.6432 18.2449 27.7629 19.2872C27.7999 19.6099 28.0991 19.8492 28.4204 19.8113C28.7414 19.7741 28.9788 19.4733 28.9418 19.1506C28.7502 17.4826 27.2736 16.6606 27.2109 16.6262C27.2736 16.6606 26.9239 16.4699 27.2109 16.6262Z" fill="#004928"/>
</svg>
