<svg width="48" height="36" viewBox="0 0 48 36" fill="none" xmlns="http://www.w3.org/2000/svg">
<path d="M33.6218 18H30.1936C29.7847 18 29.4531 18.1832 29.4531 18.4091C29.4531 18.635 29.7846 18.8182 30.1936 18.8182H33.6218C34.0306 18.8182 34.3622 18.635 34.3622 18.4091C34.3621 18.1831 34.0306 18 33.6218 18Z" fill="#004928"/>
<path d="M33.6218 21.2727H30.1936C29.7847 21.2727 29.4531 21.4559 29.4531 21.6818C29.4531 21.9077 29.7846 22.0909 30.1936 22.0909H33.6218C34.0306 22.0909 34.3622 21.9077 34.3622 21.6818C34.3621 21.4558 34.0306 21.2727 33.6218 21.2727Z" fill="#004928"/>
<path d="M9.40802 33.5454C12.3404 33.5454 14.7262 30.9761 14.7262 27.8181C14.7262 24.6601 12.3404 22.0908 9.40802 22.0908C6.47553 22.0908 4.08984 24.6601 4.08984 27.8181C4.08984 30.9761 6.47553 33.5454 9.40802 33.5454ZM9.40802 23.5539C11.5914 23.5539 13.3677 25.4669 13.3677 27.8182C13.3677 30.1695 11.5914 32.0823 9.40802 32.0823C7.22466 32.0823 5.44837 30.1695 5.44837 27.8182C5.44837 25.4669 7.22466 23.5539 9.40802 23.5539Z" fill="#004928"/>
<path d="M9.81787 29.4545C11.1713 29.4545 12.2724 28.3534 12.2724 27C12.2724 25.6465 11.1712 24.5454 9.81787 24.5454C8.46442 24.5454 7.36328 25.6465 7.36328 27C7.36338 28.3534 8.46442 29.4545 9.81787 29.4545ZM9.81787 26.0036C10.3673 26.0036 10.8143 26.4505 10.8143 27.0001C10.8143 27.5495 10.3673 27.9965 9.81787 27.9965C9.26842 27.9965 8.82142 27.5496 8.82142 27.0001C8.82142 26.4505 9.26842 26.0036 9.81787 26.0036Z" fill="#004928"/>
<path d="M38.8636 25.3636C37.2846 25.3636 36 26.6482 36 28.2272C36 29.8063 37.2847 31.0909 38.8636 31.0909C40.4426 31.0909 41.7273 29.8062 41.7273 28.2272C41.7273 26.6483 40.4426 25.3636 38.8636 25.3636ZM38.8636 29.5944C38.1098 29.5944 37.4965 28.9811 37.4965 28.2272C37.4965 27.4734 38.1098 26.8601 38.8636 26.8601C39.6175 26.8601 40.2307 27.4734 40.2307 28.2272C40.2307 28.9811 39.6175 29.5944 38.8636 29.5944Z" fill="#004928"/>
<path d="M46.1183 23.7257H43.6861V18.1908C43.6861 16.7759 42.5966 15.5818 41.2057 15.472L38.1189 15.2283C37.7368 15.1982 37.4017 15.4883 37.3718 15.8765C37.3421 16.2647 37.6282 16.6039 38.011 16.6341L41.0979 16.8778C41.7695 16.9307 42.2956 17.5075 42.2956 18.1907V23.2394C41.2395 22.5239 39.9716 22.1057 38.609 22.1057C35.0377 22.1057 32.1008 24.9825 31.9613 28.5866H27.9658V15.8414L34.7801 16.3792C35.1655 16.409 35.4975 16.1172 35.5271 15.731C35.5569 15.3428 35.2708 15.0036 34.888 14.9734L33.9776 14.9015V9.50088C33.9776 8.71173 33.3445 8.06967 32.5664 8.06967H32.3682V6.38536C32.3682 6.21342 32.4687 6.05817 32.6241 5.98963L34.2629 5.26772C34.6151 5.11265 34.7766 4.69735 34.6235 4.34019C34.4706 3.98304 34.0612 3.81916 33.7089 3.97441L32.0702 4.69633C31.4065 4.98865 30.9778 5.65158 30.9778 6.38536V8.06967H30.7796C30.0014 8.06967 29.3683 8.71173 29.3683 9.50088V14.5378L27.8098 14.4148L24.9637 4.03878H26.6918C27.7898 4.03878 28.683 3.13286 28.683 2.01939C28.683 0.905915 27.7897 0 26.6918 0H4.56215C3.4642 0 2.571 0.905915 2.571 2.01939C2.571 3.13286 3.46429 4.03878 4.56215 4.03878H4.80869V7.24927C4.80869 7.6386 5.11992 7.9543 5.50392 7.9543C5.88791 7.9543 6.19914 7.6386 6.19914 7.24927V4.03878H7.26734V11.8066C7.26734 12.6615 7.9532 13.357 8.79617 13.357H11.8821C12.7251 13.357 13.4109 12.6615 13.4109 11.8066V4.03878H14.4911V15.4696C13.0018 14.8129 11.3851 14.4656 9.73822 14.4656C8.52053 14.4656 7.33027 14.6521 6.19924 15.0073V10.5454C6.19924 10.156 5.888 9.84032 5.50401 9.84032C5.12002 9.84032 4.80878 10.156 4.80878 10.5454V15.543C3.12331 16.3187 1.61792 17.4942 0.418856 19.0096C-0.229196 19.8287 -0.112228 21.0424 0.679486 21.7153L1.4357 22.358C0.804981 23.6285 0.449164 25.0625 0.449164 26.5794C0.449164 31.7673 4.61118 36 9.73813 36C13.6383 36 17.0299 33.539 18.3942 29.9969H32.0519C32.59 33.1828 35.3322 35.6033 38.6091 35.6033C41.8863 35.6033 44.6282 33.1825 45.1662 29.9969H46.1183C46.8552 29.9969 47.4545 29.389 47.4545 28.6418V25.0811C47.4545 24.3337 46.8552 23.7257 46.1183 23.7257ZM42.9073 29.5595H43.8257C43.7021 30.5048 43.3343 31.3727 42.788 32.0955L42.1399 31.4383C41.8684 31.1629 41.4283 31.163 41.1568 31.4383C40.8853 31.7137 40.8853 32.1601 41.1568 32.4354L41.8049 33.0927C41.0921 33.6468 40.2363 34.0197 39.3042 34.1451V33.2136C39.3042 32.8243 38.993 32.5086 38.609 32.5086C38.225 32.5086 37.9138 32.8243 37.9138 33.2136V34.1451C36.9816 34.0197 36.1259 33.6468 35.4131 33.0927L36.0612 32.4354C36.3326 32.1601 36.3326 31.7137 36.0612 31.4383C35.7898 31.163 35.3495 31.163 35.0781 31.4383L34.43 32.0955C33.8836 31.3727 33.5159 30.5049 33.3922 29.5595H34.3106C34.6945 29.5595 35.0059 29.2438 35.0059 28.8544C35.0059 28.4651 34.6946 28.1494 34.3106 28.1494H33.3922C33.5159 27.2041 33.8836 26.3363 34.4299 25.6134L35.078 26.2707C35.3494 26.546 35.7896 26.546 36.0611 26.2707C36.3326 25.9953 36.3326 25.549 36.0611 25.2736L35.413 24.6163C36.1258 24.0622 36.9815 23.6893 37.9137 23.5639V24.4954C37.9137 24.8847 38.2249 25.2004 38.6089 25.2004C38.9929 25.2004 39.3041 24.8847 39.3041 24.4954V23.5639C40.2363 23.6893 41.092 24.0622 41.8048 24.6163L41.1567 25.2736C40.8852 25.549 40.8852 25.9953 41.1567 26.2707C41.4281 26.546 41.8683 26.546 42.1398 26.2707L42.7879 25.6134C43.3342 26.3363 43.702 27.2041 43.8256 28.1494H42.9072C42.5233 28.1494 42.2119 28.4651 42.2119 28.8544C42.2119 29.2438 42.5234 29.5595 42.9073 29.5595ZM30.7589 9.50088C30.7589 9.4892 30.7682 9.47974 30.7798 9.47974H32.5666C32.5781 9.47974 32.5874 9.4892 32.5874 9.50088V14.7918L30.7589 14.6475L30.7589 9.50088ZM26.5754 15.1756V26.5284C26.2224 26.2676 25.8178 26.0748 25.3802 25.9686V15.0794C25.3802 15.0156 25.3716 14.952 25.3548 14.8904L22.3782 4.03868H23.5206L26.5754 15.1756ZM23.9898 19.4188C23.6569 19.2227 23.3959 18.9067 23.2737 18.5201L22.5876 16.3496C22.4992 16.07 22.7039 15.7844 22.9942 15.7844H23.9898V19.4188ZM3.96136 2.0193C3.96136 1.68338 4.23089 1.40997 4.56215 1.40997H26.6919C27.0232 1.40997 27.2927 1.68329 27.2927 2.0193C27.2927 2.3553 27.0232 2.62862 26.6919 2.62862H4.56215C4.23089 2.62862 3.96136 2.3553 3.96136 2.0193ZM12.0204 11.8065C12.0204 11.8838 11.9583 11.9468 11.882 11.9468H8.79608C8.7198 11.9468 8.6577 11.8838 8.6577 11.8065V4.03868H12.0205L12.0204 11.8065ZM15.8814 4.03868H20.9351L23.7701 14.3743H22.9943C21.7614 14.3743 20.8873 15.5894 21.2637 16.7801L21.9498 18.9507C22.2589 19.9285 23.0398 20.6682 23.9899 20.9368V25.8743H22.9486C22.25 25.8743 21.6422 25.3569 21.5346 24.6708C20.9863 21.1729 18.9229 18.0493 15.8815 16.1957L15.8814 4.03868ZM3.68627 21.439L4.023 21.7804C4.29456 22.0558 4.73463 22.0558 5.00611 21.7804C5.27758 21.5051 5.27758 21.0587 5.00611 20.7834L4.66938 20.4419C5.87521 19.416 7.38634 18.749 9.04281 18.6017V19.0876C9.04281 19.477 9.35404 19.7927 9.73804 19.7927C10.122 19.7927 10.4333 19.477 10.4333 19.0876V18.6017C12.0896 18.7489 13.6008 19.4159 14.8066 20.4419L14.4699 20.7834C14.1984 21.0587 14.1984 21.5051 14.4699 21.7804C14.7414 22.0558 15.1815 22.0558 15.453 21.7804L15.7897 21.439C16.8014 22.6619 17.459 24.1945 17.6042 25.8742H17.125C16.7411 25.8742 16.4298 26.1899 16.4298 26.5792C16.4298 26.9686 16.741 27.2843 17.125 27.2843H17.6042C17.459 28.9641 16.8014 30.4967 15.7897 31.7196L15.453 31.3781C15.1815 31.1028 14.7413 31.1028 14.4699 31.3781C14.1984 31.6535 14.1984 32.0999 14.4699 32.3752L14.8066 32.7167C13.6008 33.7426 12.0896 34.4095 10.4333 34.5569V34.0709C10.4333 33.6816 10.122 33.3659 9.73804 33.3659C9.35404 33.3659 9.04281 33.6816 9.04281 34.0709V34.5569C7.38644 34.4096 5.8753 33.7427 4.66938 32.7167L5.00611 32.3752C5.27758 32.0999 5.27758 31.6535 5.00611 31.3781C4.73463 31.1028 4.29447 31.1028 4.023 31.3781L3.68627 31.7196C2.67462 30.4967 2.01702 28.9641 1.87178 27.2843H2.35096C2.73486 27.2843 3.04619 26.9686 3.04619 26.5792C3.04619 26.1899 2.73496 25.8742 2.35096 25.8742H1.87178C2.01702 24.1944 2.67471 22.6619 3.68627 21.439ZM18.814 28.5867C18.953 27.9395 19.027 27.2681 19.027 26.5792C19.027 21.3848 14.86 17.1588 9.73804 17.1588C6.614 17.1588 3.84523 18.731 2.1605 21.1362C2.15985 21.1349 2.1592 21.1337 2.15855 21.1326L1.57232 20.6345C1.35219 20.4474 1.32179 20.1213 1.50308 19.8921C3.52278 17.3397 6.52419 15.8758 9.73794 15.8758C14.9087 15.8758 19.3489 19.7094 20.1612 24.8923C20.3784 26.2784 21.5507 27.2845 22.9484 27.2845H24.5961C25.443 27.2845 26.1674 27.8266 26.4494 28.5869L18.814 28.5867ZM46.0642 28.5867H45.2568C45.2076 27.3151 44.8103 26.1332 44.1584 25.1358H46.0642V28.5867Z" fill="#004928"/>
</svg>
