<svg width="44" height="40" viewBox="0 0 44 40" fill="none" xmlns="http://www.w3.org/2000/svg">
<path d="M39.2314 17.7825C38.0686 17.5162 36.1281 17.0718 35.9104 16.5345L35.8883 16.4604C35.8879 16.4591 35.8875 16.4578 35.8871 16.4564C35.2832 14.5008 34.3051 12.7112 32.9795 11.1364C32.6927 10.6711 33.8282 9.00122 34.2038 8.44864C34.4064 8.15078 34.3291 7.74509 34.0312 7.54254C33.7334 7.33991 33.3277 7.41731 33.1251 7.71517C32.0458 9.30256 31.1423 10.8181 31.9303 11.9127C31.9402 11.9264 31.9507 11.9398 31.9615 11.9527C33.1848 13.3997 34.0865 15.0454 34.6415 16.8444C34.6416 16.8448 34.6417 16.8451 34.6418 16.8454L34.667 16.9301C34.6702 16.9405 34.6735 16.9508 34.6772 16.961C35.1112 18.1772 36.9711 18.6031 38.9402 19.0541C39.7882 19.2483 40.665 19.4491 41.2751 19.6945C41.8423 19.9226 41.9583 20.1013 41.9583 20.1366C41.9583 20.2072 41.825 20.3895 41.3253 20.6246C40.765 20.8884 39.9864 21.1102 39.162 21.3449C37.295 21.8767 35.3644 22.4266 34.9799 23.7819C34.9757 23.7969 34.9719 23.8121 34.9688 23.8273C34.9586 23.8762 34.9478 23.9248 34.9371 23.9734L34.9309 24.0013C34.9277 24.0154 34.9251 24.0295 34.923 24.0438C34.7353 25.2732 35.6677 26.1702 36.4904 26.9615C37.4164 27.8524 37.8282 28.3334 37.6046 28.8937C37.4785 29.2095 37.4485 29.2844 36.3617 28.9441C35.3208 28.6181 33.7478 28.1254 32.3377 29.5356C32.3193 29.554 32.3019 29.5736 32.2858 29.5941C29.6143 32.9985 25.6035 34.9509 21.2818 34.9509C20.1836 34.9509 19.0877 34.8223 18.0247 34.5687C18.0014 34.5632 17.9779 34.5589 17.954 34.5559C16.0453 34.3176 14.9396 35.8782 14.0508 37.1318C13.0466 38.5483 12.6596 38.9103 12.0309 38.581C11.8343 38.478 11.7183 38.3714 11.6862 38.2642C11.5911 37.9467 11.9681 37.2658 12.3008 36.665C13.0088 35.3866 14.0786 33.4547 12.364 31.7401C12.3504 31.7264 12.336 31.7133 12.3213 31.7009C10.3661 30.0662 8.89498 27.936 8.06698 25.5407C8.06211 25.5265 8.05672 25.5125 8.0508 25.4988C8.02002 25.4264 7.99706 25.3577 7.9801 25.2873C7.97697 25.2747 7.97358 25.2623 7.96984 25.25C7.96818 25.2444 7.96653 25.2389 7.96479 25.2334L7.94836 25.1824C7.94114 25.1604 7.93401 25.1385 7.92714 25.1163C7.92287 25.1024 7.91809 25.0887 7.91279 25.075C7.44004 23.846 5.80813 23.6175 4.22987 23.3965C2.6377 23.1736 1.51071 22.9654 1.51071 22.3148C1.51071 22.1597 1.51071 21.9474 2.05364 21.781C2.57065 21.6227 3.31908 21.5933 4.0429 21.5648C5.50844 21.5072 7.16958 21.442 7.33099 20.0741C7.33229 20.0631 7.33333 20.052 7.33403 20.041L7.34038 19.9411C7.34151 19.9255 7.34203 19.9099 7.34203 19.8944C7.34203 18.8139 6.16643 17.7482 4.2484 16.0988C3.01766 15.0404 1.33217 13.5909 1.30452 12.8562C1.302 12.7892 1.31539 12.7355 1.3914 12.6596C1.97181 12.0793 3.30647 12.3597 4.71958 12.6564C6.72518 13.0776 8.99829 13.5551 10.5895 11.9639C10.602 11.9514 10.6139 11.9385 10.6253 11.9251C12.0725 10.2221 13.9254 8.87599 15.9837 8.03225C15.9936 8.02825 16.0035 8.0239 16.0131 8.01938C16.0207 8.01581 16.0283 8.01216 16.0368 8.00929C16.0483 8.00537 16.0598 8.00111 16.0712 7.99659L16.1418 7.96772C16.1551 7.96241 16.1684 7.95667 16.1815 7.95041C17.1154 7.50749 17.4885 6.05899 17.9205 4.38177C18.1974 3.30644 18.713 1.30449 19.2536 1.30449C19.7219 1.30449 20.1143 2.49548 20.4295 3.45254C20.941 5.00505 21.5207 6.76472 23.0903 7.10684C23.1078 7.11067 23.1255 7.11371 23.1432 7.11606C23.9434 7.22251 24.7379 7.39948 25.5047 7.64212C25.5187 7.64655 25.533 7.65055 25.5474 7.65403C25.6815 7.68665 25.8183 7.70221 25.9584 7.70221C27.2423 7.70204 28.7779 6.39329 30.5284 4.90104C32.3133 3.37949 34.5345 1.4859 35.3723 2.32364C35.9193 2.87065 35.6467 3.91572 34.4884 5.71226C34.2933 6.01499 34.3804 6.41868 34.6832 6.61392C34.986 6.80907 35.3896 6.72185 35.5849 6.41912C36.2567 5.37701 37.8301 2.93657 36.2948 1.40119C35.5051 0.611543 34.3946 0.609108 32.9944 1.39371C31.9372 1.98612 30.7908 2.96327 29.6822 3.90833C28.3793 5.01906 26.599 6.53774 25.8723 6.39025C25.0512 6.13204 24.2017 5.94272 23.3459 5.82706C22.5186 5.62434 22.0673 4.25437 21.6686 3.04432C21.1754 1.54764 20.6655 0 19.2536 0C17.7018 0 17.1707 2.06222 16.6571 4.05652C16.4155 4.99471 16.0126 6.55861 15.634 6.76594C15.6262 6.76916 15.6184 6.77237 15.6106 6.77559L15.596 6.7815C15.5566 6.79559 15.5169 6.81186 15.4755 6.83073C13.239 7.75004 11.2256 9.21133 9.64967 11.0587C8.5559 12.1293 6.74205 11.7483 4.98778 11.3798C3.29716 11.0247 1.54889 10.6575 0.469124 11.7373C0.146394 12.06 -0.0154491 12.4638 0.00116135 12.9052C0.0501231 14.2088 1.67638 15.6072 3.39804 17.0878C4.3765 17.9293 6.00832 19.3326 6.03737 19.8799L6.03433 19.9277C6.01719 19.9839 5.86666 20.0554 5.65289 20.1081C5.22746 20.2128 4.62731 20.2364 3.99193 20.2614C3.18507 20.2931 2.35063 20.3258 1.67177 20.5338C0.460515 20.9049 0.206314 21.7072 0.206314 22.3149C0.206314 24.1503 2.33698 24.4488 4.04907 24.6885C5.13006 24.8399 6.47298 25.0279 6.68953 25.5291C6.69561 25.5481 6.70179 25.5672 6.70796 25.5862L6.71762 25.616C6.74884 25.7407 6.78936 25.8626 6.84111 25.9871C7.74451 28.5884 9.34137 30.9025 11.4609 32.6818C12.3872 33.6267 11.9643 34.5804 11.1598 36.0331C10.6579 36.9392 10.184 37.7952 10.4369 38.6387C10.5737 39.095 10.9064 39.4644 11.4259 39.7365C11.7616 39.9123 12.0984 40 12.4294 40C12.865 40 13.2906 39.8482 13.6905 39.546C14.2247 39.1424 14.6573 38.5322 15.1153 37.8862C16.0381 36.5845 16.7241 35.7363 17.7604 35.8466C18.9105 36.1179 20.095 36.2554 21.282 36.2554C25.9931 36.2554 30.3661 34.1335 33.2866 30.4321C34.0715 29.6672 34.8274 29.8305 35.9721 30.189C36.8642 30.4684 38.2125 30.8907 38.8165 29.3772C39.3899 27.9405 38.2838 26.8763 37.3951 26.0214C36.75 25.4009 36.1403 24.8144 36.2103 24.2586L36.211 24.2556C36.2209 24.2108 36.2308 24.166 36.2403 24.1211C36.4521 23.4732 38.2233 22.9687 39.5196 22.5995C41.4448 22.0511 43.2631 21.5333 43.2631 20.1365C43.2629 18.7058 41.3047 18.2573 39.2314 17.7825Z" fill="#004928"/>
<path d="M19.135 13.1471C17.1115 13.1471 15.4653 14.7933 15.4653 16.8168C15.4653 18.8403 17.1115 20.4865 19.135 20.4865C21.1585 20.4865 22.8047 18.8403 22.8047 16.8168C22.8047 14.7933 21.1585 13.1471 19.135 13.1471ZM19.135 19.1819C17.8308 19.1819 16.7698 18.1209 16.7698 16.8167C16.7698 15.5125 17.8308 14.4515 19.135 14.4515C20.4393 14.4515 21.5002 15.5125 21.5002 16.8167C21.5002 18.1209 20.4393 19.1819 19.135 19.1819Z" fill="#004928"/>
<path d="M19.6871 25.8967C18.3901 25.8967 17.335 26.952 17.335 28.249C17.335 29.546 18.3901 30.6011 19.6871 30.6011C20.9841 30.6011 22.0393 29.546 22.0393 28.249C22.0393 26.952 20.9841 25.8967 19.6871 25.8967ZM19.6871 29.2967C19.1094 29.2967 18.6394 28.8267 18.6394 28.249C18.6394 27.6713 19.1094 27.2012 19.6871 27.2012C20.2648 27.2012 20.7348 27.6713 20.7348 28.249C20.7348 28.8267 20.2648 29.2967 19.6871 29.2967Z" fill="#004928"/>
<path d="M30.5333 23.209C30.7645 23.1915 30.993 23.2121 31.2125 23.2703C31.9443 23.4642 32.7051 23.3135 33.2999 22.857C33.8763 22.4146 34.208 21.7447 34.2099 21.0199V20.9845C34.2099 13.8683 28.4204 8.0788 21.3042 8.0788C17.8888 8.0788 14.6694 9.39981 12.2389 11.7986C9.81079 14.195 8.44734 17.392 8.39968 20.8009C8.34811 24.496 9.90149 28.0487 12.6615 30.548C12.9285 30.7897 13.341 30.7693 13.5828 30.5023C13.8247 30.2353 13.8042 29.8228 13.5372 29.581C11.0548 27.3333 9.65773 24.1397 9.70408 20.8192C9.74687 17.7552 10.9725 14.8813 13.1552 12.7271C15.34 10.5709 18.234 9.38337 21.3042 9.38337C27.7011 9.38337 32.9054 14.5877 32.9054 20.9846V21.0157C32.9046 21.3386 32.7626 21.6249 32.5056 21.8222C32.234 22.0306 31.8844 22.0989 31.5465 22.0093C31.1859 21.9138 30.812 21.8799 30.4351 21.9083C28.8023 22.0316 27.4848 23.3568 27.3707 24.9907C27.3053 25.9254 27.62 26.8161 28.2567 27.4989C28.7563 28.0346 29.4203 28.3884 30.1342 28.5108C27.9399 31.0863 24.7311 32.5858 21.3038 32.5858C21.2838 32.5858 21.2631 32.5858 21.2431 32.5856C19.3368 32.5758 17.4461 32.0874 15.7753 31.1735C15.4593 31.0005 15.063 31.1167 14.89 31.4328C14.7171 31.7488 14.8332 32.1451 15.1493 32.318C17.0094 33.3355 19.1143 33.8791 21.2364 33.8901C21.2589 33.8902 21.2812 33.8902 21.3038 33.8902C25.6268 33.8902 29.638 31.7453 32.0442 28.1432C32.1982 27.9126 32.1896 27.6099 32.0228 27.3884C31.856 27.1669 31.5674 27.0751 31.3033 27.1596C31.1076 27.2221 30.902 27.2539 30.6922 27.2539C30.1245 27.2539 29.5983 27.0249 29.2106 26.6092C28.8233 26.194 28.6321 25.6515 28.6719 25.0817C28.7412 24.089 29.5415 23.284 30.5333 23.209Z" fill="#004928"/>
<path d="M28.3718 17.1016C28.6348 17.0511 28.8426 16.8326 28.8871 16.5698C28.9343 16.2914 28.7888 16.0068 28.537 15.8804C28.3013 15.7622 28.0104 15.8003 27.8124 15.9742C27.6021 16.1588 27.5348 16.4687 27.6471 16.7244C27.7682 17.0007 28.0755 17.1621 28.3718 17.1016Z" fill="#004928"/>
<path d="M15.3463 22.9466C14.8546 22.6146 14.2008 23.0944 14.3564 23.6628C14.5086 24.2187 15.2884 24.3039 15.5598 23.7963C15.7173 23.5017 15.6194 23.1331 15.3463 22.9466Z" fill="#004928"/>
</svg>
