<svg width="29" height="44" viewBox="0 0 29 44" fill="none" xmlns="http://www.w3.org/2000/svg">
<path d="M27.9562 8.01278H27.1659V7.83919C27.1659 6.95312 26.4509 6.23225 25.572 6.23225H23.2413C22.8842 6.23225 22.5701 6.41909 22.3884 6.70042H20.7442C20.56 6.16146 20.0531 5.77256 19.4567 5.77256H16.2212V3.76616H18.3321C19.4642 3.76616 20.1644 2.52156 19.581 1.54169L19.207 0.913328C18.8714 0.349962 18.2582 0 17.6065 0H13.5484C12.8967 0 12.2835 0.349962 11.9481 0.913328L11.574 1.54169C10.9913 2.52035 11.6894 3.76616 12.8229 3.76616H14.9337V5.77264H11.6983C11.2197 5.77264 10.7989 6.02317 10.5557 6.40039H6.31262C5.12561 6.40039 4.06786 7.11607 3.61791 8.22342L0.450846 16.0191C-0.0672551 17.2943 -0.141417 18.7251 0.241838 20.048C0.543892 21.0901 1.9564 21.2156 2.43613 20.2459L6.84454 11.3352C6.91304 11.1967 7.05089 11.1108 7.20428 11.1108H10.7015C10.7073 11.1171 10.7127 11.1237 10.7186 11.1298L9.86972 15.2623C9.10544 15.692 8.42219 16.2413 7.83645 16.9C7.59912 17.1669 7.62144 17.5773 7.88615 17.8166C8.15018 18.0552 8.55721 18.034 8.79523 17.7665C9.31153 17.1858 9.91899 16.7073 10.6005 16.3398H20.5565C22.7156 17.5042 24.0511 19.7437 24.0511 22.2218V36.0176C24.0511 36.3762 24.3392 36.6667 24.6948 36.6667C25.0505 36.6667 25.3386 36.3762 25.3386 36.0176V22.2217C25.3386 19.3081 23.7934 16.6699 21.2853 15.2615L20.4366 11.1298C20.5731 10.987 20.6789 10.8146 20.7443 10.6232H22.3884C22.57 10.9046 22.8841 11.0915 23.2413 11.0915H25.572C26.4509 11.0915 27.1659 10.3706 27.1659 9.48454V9.31086H27.9562C28.3119 9.31086 28.6 9.02035 28.6 8.66182C28.6 8.30329 28.3119 8.01278 27.9562 8.01278ZM12.6778 2.20976L13.052 1.58132C13.156 1.40651 13.3462 1.29808 13.5484 1.29808H17.6064C17.8085 1.29808 17.9988 1.40668 18.1029 1.58141L18.4769 2.20976C18.5453 2.32443 18.4639 2.46799 18.332 2.46799H12.8227C12.6903 2.46808 12.6098 2.32399 12.6778 2.20976ZM20.8194 7.9985H22.2236V9.32514H20.8194V7.9985ZM11.6231 7.14627C11.6231 7.10465 11.6567 7.07064 11.6982 7.07064H19.4568C19.4982 7.07064 19.5319 7.10465 19.5319 7.14627V10.1773C19.5319 10.219 19.4982 10.253 19.4568 10.253H11.6982C11.6568 10.253 11.6231 10.219 11.6231 10.1773V7.14627ZM5.6922 10.7557L1.40808 19.4151C1.18817 18.4505 1.26903 17.4296 1.64215 16.511L4.80922 8.7153C5.0602 8.0975 5.65023 7.6983 6.31245 7.6983H10.3355V9.81261H7.20411C6.55931 9.8127 5.98001 10.174 5.6922 10.7557ZM11.2297 15.0416L11.9468 11.5511H19.2082L19.9251 15.0416H11.2297ZM25.8783 9.48454C25.8783 9.65485 25.7408 9.7934 25.572 9.7934H23.5112V7.53033H25.572C25.7409 7.53033 25.8783 7.66896 25.8783 7.83919V9.48454Z" fill="#004928"/>
<path d="M25.0132 38.1434C24.6525 38.1434 24.3603 38.4334 24.3603 38.7912V40.0507C24.3603 41.5138 23.1606 42.7041 21.6861 42.7041H20.3654C18.6189 42.7041 18.0454 41.0031 15.7661 41.0031C13.4799 41.0031 12.9275 42.7041 11.1668 42.7041H9.84618C8.37162 42.7041 7.17197 41.5138 7.17197 40.0507V21.9543C7.17197 21.2597 7.28053 20.573 7.49478 19.9131C7.60534 19.5726 7.41669 19.2076 7.07343 19.0979C6.73025 18.9881 6.36243 19.1752 6.25178 19.5159C5.99593 20.3043 5.86621 21.1247 5.86621 21.9543V40.0507C5.86621 42.2282 7.65166 43.9998 9.84627 43.9998H11.1669C13.4838 43.9998 13.961 42.2988 15.7662 42.2988C17.559 42.2988 18.0618 43.9998 20.3655 43.9998H21.6862C23.8808 43.9998 25.6662 42.2282 25.6662 40.0507V38.7912C25.6662 38.4335 25.3739 38.1434 25.0132 38.1434Z" fill="#004928"/>
<path d="M11.3811 28.3392C11.0258 28.3392 10.6862 28.4512 10.3989 28.6631L9.79557 29.1083C9.51299 29.3168 9.45072 29.7179 9.65643 30.0043C9.86265 30.2914 10.2585 30.3534 10.5405 30.1454L11.1438 29.7002C11.2132 29.6489 11.2953 29.6219 11.3811 29.6219H12.3366V30.3786C12.3366 30.6997 12.3733 31.012 12.4407 31.3127L11.2274 32.3421C10.8476 32.6644 10.6298 33.137 10.6298 33.6389V34.5586C10.6298 34.9129 10.9131 35.2 11.2626 35.2C11.6121 35.2 11.8954 34.9129 11.8954 34.5586V33.6389C11.8954 33.5177 11.9481 33.4035 12.0398 33.3257L12.9386 32.563C13.6697 33.7835 14.9936 34.6005 16.5023 34.6005C18.0107 34.6005 19.3344 33.7837 20.0654 32.5636L20.9636 33.3257C21.0554 33.4035 21.1081 33.5177 21.1081 33.6389V34.5586C21.1081 34.9129 21.3913 35.2 21.7409 35.2C22.0905 35.2 22.3737 34.9129 22.3737 34.5586V33.6389C22.3737 33.137 22.1559 32.6643 21.7761 32.3421L20.5638 31.3135C20.6312 31.0126 20.668 30.6999 20.668 30.3786V29.6219H21.6225C21.7083 29.6219 21.7903 29.6489 21.8598 29.7002L22.4632 30.1454C22.7464 30.3544 23.142 30.2901 23.3472 30.0043C23.5529 29.7179 23.4906 29.3168 23.2081 29.1083L22.6047 28.6631C22.3175 28.4511 21.9778 28.3392 21.6226 28.3392H20.6681V27.3745L21.7526 26.488C22.1474 26.1655 22.3738 25.6855 22.3738 25.1715V24.2185C22.3738 23.8642 22.0905 23.5772 21.741 23.5772C21.3914 23.5772 21.1082 23.8642 21.1082 24.2185V25.1715C21.1082 25.2957 21.0535 25.4116 20.9581 25.4895L20.3367 25.9975C20.0932 25.6399 19.7307 25.3671 19.2967 25.2467L19.0712 25.1842V24.6035C19.0712 23.1679 17.9188 22 16.5023 22C15.0858 22 13.9334 23.1679 13.9334 24.6035V25.1841L13.7078 25.2466C13.2736 25.367 12.9111 25.6401 12.6675 25.9979L12.0454 25.4893C11.95 25.4114 11.8953 25.2955 11.8953 25.1713V24.2184C11.8953 23.8641 11.612 23.577 11.2625 23.577C10.913 23.577 10.6297 23.8641 10.6297 24.2184V25.1713C10.6297 25.6855 10.8562 26.1653 11.2509 26.4879L12.3365 27.3752V28.3391L11.3811 28.3392ZM19.4025 27.0678V30.3786C19.4025 31.7789 18.4309 32.9529 17.1352 33.2465V25.9773L18.9629 26.4841C19.2217 26.5558 19.4025 26.7958 19.4025 27.0678ZM15.1991 24.6036C15.1991 23.8753 15.7838 23.2828 16.5024 23.2828C17.2211 23.2828 17.8057 23.8754 17.8057 24.6036V24.8334L17.4337 24.7303C16.8272 24.562 16.1772 24.562 15.5713 24.7302L15.1991 24.8334V24.6036ZM13.6023 27.0678C13.6023 26.7958 13.7831 26.5558 14.0419 26.484L15.8696 25.9772V33.2465C14.5739 32.953 13.6023 31.779 13.6023 30.3786V27.0678Z" fill="#004928"/>
</svg>
